HIERARCHY
ROOT Hips
{
	OFFSET 0.00000 0.00000 0.00000
	CHANNELS 6 Xposition Yposition Zposition Zrotation Yrotation Xrotation 
	JOINT LHipJoint
	{
		OFFSET 0 0 0
		CHANNELS 3 Zrotation Yrotation Xrotation
		JOINT LeftUpLeg
		{
			OFFSET 1.62067 -1.77917 0.70989
			CHANNELS 3 Zrotation Yrotation Xrotation
			JOINT LeftLeg
			{
				OFFSET 2.34532 -6.44371 0.00000
				CHANNELS 3 Zrotation Yrotation Xrotation
				JOINT LeftFoot
				{
					OFFSET 2.74224 -7.53425 0.00000
					CHANNELS 3 Zrotation Yrotation Xrotation
					JOINT LeftToeBase
					{
						OFFSET 0.17032 -0.46794 2.08086
						CHANNELS 3 Zrotation Yrotation Xrotation
						End Site
						{
							OFFSET 0.00000 -0.00000 1.07476
						}
					}
				}
			}
		}
	}
	JOINT RHipJoint
	{
		OFFSET 0 0 0
		CHANNELS 3 Zrotation Yrotation Xrotation
		JOINT RightUpLeg
		{
			OFFSET -1.55811 -1.77917 0.70989
			CHANNELS 3 Zrotation Yrotation Xrotation
			JOINT RightLeg
			{
				OFFSET -2.33243 -6.40830 0.00000
				CHANNELS 3 Zrotation Yrotation Xrotation
				JOINT RightFoot
				{
					OFFSET -2.78798 -7.65993 0.00000
					CHANNELS 3 Zrotation Yrotation Xrotation
					JOINT RightToeBase
					{
						OFFSET -0.22707 -0.62388 2.04059
						CHANNELS 3 Zrotation Yrotation Xrotation
						End Site
						{
							OFFSET -0.00000 -0.00000 1.07030
						}
					}
				}
			}
		}
	}
	JOINT LowerBack
	{
		OFFSET 0 0 0
		CHANNELS 3 Zrotation Yrotation Xrotation
		JOINT Spine
		{
			OFFSET 0.02203 1.91565 0.07161
			CHANNELS 3 Zrotation Yrotation Xrotation
			JOINT Spine1
			{
				OFFSET 0.01740 1.90525 0.11636
				CHANNELS 3 Zrotation Yrotation Xrotation
				JOINT Neck
				{
					OFFSET 0 0 0
					CHANNELS 3 Zrotation Yrotation Xrotation
					JOINT Neck1
					{
						OFFSET -0.10841 1.83566 0.05067
						CHANNELS 3 Zrotation Yrotation Xrotation
						JOINT Head
						{
							OFFSET 0.06601 1.74760 -0.50505
							CHANNELS 3 Zrotation Yrotation Xrotation
							End Site
							{
								OFFSET 0.03102 1.85215 -0.17697
							}
						}
					}
				}
				JOINT LeftShoulder
				{
					OFFSET 0 0 0
					CHANNELS 3 Zrotation Yrotation Xrotation
					JOINT LeftArm
					{
						OFFSET 2.87059 1.35470 0.16111
						CHANNELS 3 Zrotation Yrotation Xrotation
						JOINT LeftForeArm
						{
							OFFSET 5.43592 -0.00000 0.00000
							CHANNELS 3 Zrotation Yrotation Xrotation
							JOINT LeftHand
							{
								OFFSET 3.25460 -0.00000 0.00000
								CHANNELS 3 Zrotation Yrotation Xrotation
								JOINT LeftFingerBase
								{
									OFFSET 0 0 0
									CHANNELS 3 Zrotation Yrotation Xrotation
									JOINT LeftHandIndex1
									{
										OFFSET 0.49824 -0.00000 0.00000
										CHANNELS 3 Zrotation Yrotation Xrotation
										End Site
										{
											OFFSET 0.40170 -0.00000 0.00000
										}
									}
								}
								JOINT LThumb
								{
									OFFSET 0 0 0
									CHANNELS 3 Zrotation Yrotation Xrotation
									End Site
									{
										OFFSET 0.40783 -0.00000 0.40783
									}
								}
							}
						}
					}
				}
				JOINT RightShoulder
				{
					OFFSET 0 0 0
					CHANNELS 3 Zrotation Yrotation Xrotation
					JOINT RightArm
					{
						OFFSET -2.86643 1.23488 0.45957
						CHANNELS 3 Zrotation Yrotation Xrotation
						JOINT RightForeArm
						{
							OFFSET -5.33830 -0.00000 0.00000
							CHANNELS 3 Zrotation Yrotation Xrotation
							JOINT RightHand
							{
								OFFSET -3.23148 -0.00000 0.00000
								CHANNELS 3 Zrotation Yrotation Xrotation
								JOINT RightFingerBase
								{
									OFFSET 0 0 0
									CHANNELS 3 Zrotation Yrotation Xrotation
									JOINT RightHandIndex1
									{
										OFFSET -0.46364 -0.00000 0.00000
										CHANNELS 3 Zrotation Yrotation Xrotation
										End Site
										{
											OFFSET -0.37380 -0.00000 0.00000
										}
									}
								}
								JOINT RThumb
								{
									OFFSET 0 0 0
									CHANNELS 3 Zrotation Yrotation Xrotation
									End Site
									{
										OFFSET -0.37951 -0.00000 0.37951
									}
								}
							}
						}
					}
				}
			}
		}
	}
}
MOTION
Frames: 11
Frame Time: 0.181818
0.00 0.00 0.00 0 0 0 0 0 0 -21 0 0 0 0 0 0 0 0 0 0 0 0 0 0 21 0 0 0 0 0 0 0 0 0 0 0 0 0 0 0 0 0 0 0 0 0 0 -16 0 0 21 0 0 11 0 0 0 -8 0 0 0 0 0 0 0 0 0 0 0 0 0 0 0 0 0 0 0 0 8 0 0 0 0 0 0 0 0 0 0 0 0 0 0 0 0 0
0.00 0.00 0.00 -4.1462 2.2932 20.6797 0.0000 0.0000 0.0000 -23.7989 -8.4502 -19.5739 0.6610 5.1999 14.4797 0.5384 2.3905 -14.9353 0.2363 3.1282 8.6359 0.0000 0.0000 0.0000 -2.1915 9.1146 -8.2235 -0.3166 -3.6172 10.0022 2.2810 -26.5353 -18.1892 -2.6924 -10.1796 29.5603 4.8160 -0.4851 -7.8054 4.7555 -0.4452 -12.4393 2.3899 -0.3859 -8.8690 13.3007 18.7195 -4.8585 2.0738 23.7498 13.5068 0.6048 12.3280 6.1942 -0.0000 0.0000 0.0000 36.9012 -10.1042 -30.4664 18.0898 -28.2720 -4.5917 -0.0000 0.0000 -47.4758 30.3321 -13.4123 -7.7289 -7.1250 0.0000 -0.0000 2.0153 14.5421 -1.4456 -0.0000 0.0000 0.0000 -9.7769 -14.6976 -23.3904 -143.5625 45.8117 -104.1646 0.0000 -0.0000 -57.5730 -7.6034 -47.2281 5.5965 7.1250 -0.0000 -0.0000 51.7764 -71.4979 -35.3721
0.00 0.00 0.00 -4.1602 3.0421 16.9173 0.0000 0.0000 0.0000 -23.1657 -8.5325 -20.4570 1.3060 7.2396 20.4270 0.6866 1.6045 -16.3131 0.2565 3.2584 8.9990 0.0000 0.0000 0.0000 -0.7817 6.9457 -12.3829 -1.2369 -7.0527 19.8715 2.6593 -28.3595 -3.1335 -0.0638 -1.6300 4.4840 4.6420 0.1926 -5.6586 3.2222 0.3736 -9.4322 0.7841 0.0075 -6.7048 9.8413 14.2294 -5.7841 2.2373 18.1587 26.4047 1.1953 9.6474 10.0917 0.0000 0.0000 0.0000 31.6178 -13.4962 -24.1136 33.7541 -43.9017 -13.9422 -0.0000 0.0000 -54.9493 24.9402 -16.8933 -7.6961 -7.1250 0.0000 -0.0000 -1.9295 11.4708 1.5081 0.0000 0.0000 0.0000 -0.9439 -4.8579 -15.5058 -147.4941 42.9468 -106.9158 0.0000 -0.0000 -54.5521 -4.2742 -45.3954 3.0459 7.1250 -0.0000 -0.0000 50.4980 -69.2767 -32.1180
0.00 0.00 0.00 -4.1984 2.8535 14.8831 0.0000 0.0000 0.0000 -23.2778 -9.2386 -22.6853 2.1838 9.2389 26.5454 0.9113 1.0056 -18.4274 0.3984 4.0524 11.2242 0.0000 0.0000 0.0000 0.5786 12.0759 -20.0891 -3.9012 -12.0277 35.8302 1.5026 -23.3124 1.9737 -0.4135 4.1275 -11.4357 2.6713 -0.0556 -4.5214 2.9246 0.0023 -7.0529 1.5369 -0.0440 -4.7731 8.3422 11.6496 -7.6631 0.0222 15.6619 34.8583 0.8505 8.0061 13.7970 -0.0000 -0.0000 0.0000 28.0203 -19.0904 -22.7589 55.4619 -54.9741 -30.5939 -0.0000 0.0000 -65.3093 25.3692 -17.9580 -8.3176 -7.1250 0.0000 -0.0000 -1.7433 10.2541 1.4058 -0.0000 -0.0000 0.0000 6.7829 4.1267 -8.9677 -150.7921 40.2047 -109.1053 0.0000 -0.0000 -52.3567 -4.4025 -44.1004 3.0669 7.1250 -0.0000 -0.0000 47.7484 -68.4998 -29.3153
0.00 0.00 0.00 -3.6968 3.3592 14.0086 0.0000 0.0000 0.0000 -23.3093 -10.4610 -24.0986 2.9092 10.5465 30.7654 1.0552 1.2364 -19.8928 0.3792 3.9548 10.9495 0.0000 0.0000 0.0000 5.7634 15.5627 -29.9463 -8.0423 -16.1503 52.7148 0.3794 -11.0031 -2.0368 -1.1675 6.8591 -19.2985 1.1351 -0.6930 -4.4052 2.2579 -0.8808 -6.0195 1.6849 -0.4327 -3.7221 8.2173 11.7519 -8.4307 0.6650 15.8903 39.0649 1.4392 8.0582 15.9131 0.0000 -0.0000 0.0000 25.5892 -22.6786 -19.8662 64.6794 -57.4331 -38.2607 -0.0000 0.0000 -67.8094 25.5902 -20.1914 -9.3861 -7.1250 0.0000 -0.0000 -1.8261 7.8056 1.5620 0.0000 -0.0000 0.0000 9.7541 5.7981 -4.8757 -151.3672 39.6923 -109.4746 0.0000 -0.0000 -53.6786 -3.0033 -44.8578 2.1194 7.1250 -0.0000 -0.0000 50.5289 -68.5313 -31.3658
0.00 0.00 0.00 -2.2834 1.7852 10.7411 0.0000 0.0000 0.0000 -23.6600 -12.0281 -25.4306 4.1253 12.3253 36.8928 1.0618 4.4597 -21.5555 0.3597 3.8528 10.6629 0.0000 0.0000 0.0000 13.0452 23.0026 -46.6054 -13.0969 -18.8169 69.4263 -0.0432 -9.1674 7.1850 -0.8316 5.8178 -16.2567 -0.4461 -0.8400 -1.3477 0.6035 -1.1151 -1.1727 0.8567 -0.5528 -0.4243 7.9012 10.4451 -6.9114 -0.8808 15.1320 44.9188 0.8567 7.3258 19.0595 -0.0000 0.0000 0.0000 -17.5120 -47.1317 6.9005 64.2038 -57.3299 -37.8601 -0.0000 0.0000 -71.5591 24.3780 -16.7773 -7.4523 -7.1250 0.0000 -0.0000 -2.2920 11.6766 1.7822 -0.0000 0.0000 0.0000 51.8653 15.2161 23.5691 -143.5440 45.8243 -104.1513 0.0000 -0.0000 -53.3657 -1.6453 -44.0281 1.1437 7.1250 -0.0000 -0.0000 50.1375 -67.5802 -30.0806
0.00 0.00 0.00 -1.1849 -0.8224 9.0189 0.0000 0.0000 0.0000 -24.6042 -11.3644 -24.9687 4.4809 12.7742 38.5289 1.0616 6.2761 -22.6896 0.3608 3.8586 10.6791 0.0000 0.0000 0.0000 11.8121 25.0745 -46.6028 -13.6682 -19.0103 71.1887 -0.3442 -8.6878 11.2894 -1.1391 6.7780 -19.0593 -0.5399 -0.6337 -1.0329 -0.3664 -0.8308 0.8637 -0.0916 -0.4187 1.4652 7.2906 10.5079 -7.6027 -0.1660 15.2811 47.8345 1.5346 7.2094 21.1408 0.0000 0.0000 0.0000 -43.8172 -45.8997 23.9869 58.2097 -55.8137 -32.8557 -0.0000 0.0000 -69.5369 25.9699 -15.2818 -7.3156 -7.1250 0.0000 -0.0000 -1.1062 13.0772 0.8274 0.0000 0.0000 0.0000 70.8206 19.3858 32.8262 -129.9303 53.0236 -93.7702 0.0000 -0.0000 -53.6602 -3.0570 -45.3092 2.1743 7.1250 -0.0000 -0.0000 51.4018 -68.8256 -32.3218
0.00 0.00 0.00 0.5013 -0.7483 8.3669 0.0000 0.0000 0.0000 -26.1451 -12.6148 -24.1582 4.5175 12.8189 38.6941 0.9333 7.9054 -22.7498 0.3647 3.8794 10.7375 0.0000 0.0000 0.0000 9.3668 24.2851 -47.2239 -14.0247 -19.1215 72.2798 -0.5060 -5.5610 12.6908 -1.6916 8.1918 -23.2980 -1.0307 -0.6019 -1.0818 -1.1025 -0.7551 1.7963 -0.5774 -0.3850 2.4467 6.3524 10.8186 -8.3283 1.4571 15.5544 50.1406 2.7946 7.2082 23.0537 0.0000 0.0000 0.0000 -59.0118 -42.2403 31.7275 52.8438 -54.0800 -28.4616 -0.0000 0.0000 -69.4525 26.5880 -15.0400 -7.3999 -7.1250 0.0000 -0.0000 -0.6702 13.2564 0.4987 0.0000 0.0000 0.0000 78.0881 19.6999 36.9665 -114.9458 57.5128 -81.4233 0.0000 -0.0000 -53.5504 -3.6049 -45.0152 2.5514 7.1250 -0.0000 -0.0000 50.3076 -68.8234 -31.5071
0.00 0.00 0.00 1.5807 -4.0646 8.5682 0.0000 0.0000 0.0000 -27.1605 -11.2600 -26.3099 5.0296 13.4171 40.9505 1.0587 8.8645 -24.5422 0.3989 4.0551 11.2317 0.0000 0.0000 0.0000 7.9315 26.7762 -49.0192 -14.5797 -19.2805 73.9674 -0.5924 -4.7168 13.7040 -1.4792 7.6847 -21.7604 -0.9262 1.0512 -1.7142 -2.1323 1.4847 1.8076 -1.6099 0.7448 2.8506 6.0328 10.4253 -6.2311 2.0197 15.1600 52.2410 3.0774 7.0534 24.1470 -0.0000 0.0000 0.0000 -72.9108 -35.0848 35.4753 47.8648 -52.0972 -24.4790 -0.0000 0.0000 -69.5905 29.4151 -13.6717 -7.5907 -7.1250 0.0000 -0.0000 1.3668 14.3806 -0.9848 -0.0000 0.0000 0.0000 85.5961 14.4967 37.5213 -98.7261 59.7103 -67.5497 0.0000 -0.0000 -52.7849 -3.6088 -42.6409 2.4463 7.1250 -0.0000 -0.0000 45.7793 -67.2784 -26.7234
0.00 0.00 0.00 2.7559 -2.9220 8.2901 0.0000 0.0000 0.0000 -28.6820 -11.0265 -26.5025 5.4208 13.8426 42.6104 1.3017 7.0686 -25.1629 0.2169 2.9981 8.2735 0.0000 0.0000 0.0000 6.0455 25.3976 -48.9964 -15.0706 -19.4072 75.4494 -0.4644 -2.6442 12.2348 -1.2003 6.9512 -19.5708 -0.6799 1.3581 -2.7447 -2.8351 1.9350 1.9142 -2.4284 0.9849 3.5871 4.7340 9.8845 -3.4967 3.3242 14.3256 53.9034 3.7199 6.6971 24.2062 0.0000 0.0000 0.0000 -81.3718 -25.2015 36.1497 44.9797 -50.7585 -22.2230 -0.0000 0.0000 -72.4011 30.5841 -13.1905 -7.6809 -7.1250 0.0000 -0.0000 2.2097 14.7582 -1.5751 0.0000 0.0000 0.0000 89.3988 8.7919 36.2920 -81.4542 59.7222 -52.6060 0.0000 -0.0000 -51.4995 -5.1967 -40.2297 3.3617 7.1250 -0.0000 -0.0000 40.2523 -66.0352 -21.9447
0.00 0.00 0.00 4.0070 -0.7115 8.4414 0.0000 0.0000 0.0000 -30.8656 -12.1248 -24.9025 5.3102 13.7249 42.1463 1.3902 6.3997 -25.4071 0.1891 2.8007 7.7244 0.0000 0.0000 0.0000 3.4952 25.2331 -47.7140 -15.1965 -19.4376 75.8278 -0.3522 -0.3516 11.0928 -2.9209 10.5658 -30.8292 -0.3655 2.7990 -5.3392 -3.9269 3.9634 1.9670 -3.4862 2.0258 5.2979 4.9049 8.7444 -0.1933 6.1788 11.7482 56.5428 4.9293 6.1054 25.3616 0.0000 -0.0000 0.0000 -84.5778 -15.6428 41.5589 41.1665 -48.7460 -19.3117 -0.0000 0.0000 -77.4911 34.1100 -14.2780 -9.4833 -7.1250 0.0000 -0.0000 4.4481 12.9323 -3.3501 0.0000 -0.0000 0.0000 89.9631 1.8910 34.0096 -55.9279 55.1234 -30.9759 0.0000 -0.0000 -50.0466 -3.1074 -47.2214 2.2818 7.1250 -0.0000 -0.0000 55.5432 -69.9472 -36.7109
